<?xml version="1.0" encoding="utf-8"?>
<!-- Generator: Adobe Illustrator 18.1.1, SVG Export Plug-In . SVG Version: 6.00 Build 0)  -->
<svg version="1.1" id="Layer_1" xmlns="http://www.w3.org/2000/svg" xmlns:xlink="http://www.w3.org/1999/xlink" x="0px" y="0px"
	 viewBox="0 0 120 120" enable-background="new 0 0 120 120" xml:space="preserve">
<g>
	<rect x="21.2" y="82.5" fill="#F8D098" width="5.6" height="5.6"/>
	<rect x="21.2" y="76.9" fill="#F8D098" width="5.6" height="5.6"/>
	<rect x="21.2" y="71.3" fill="#F8D098" width="5.6" height="5.6"/>
	<rect x="21.2" y="65.7" fill="#4D3605" width="5.6" height="5.6"/>
	<g>
		<rect x="26.7" y="99.2" fill="#4D3605" width="5.6" height="5.6"/>
		<rect x="32.3" y="99.2" fill="#4D3605" width="5.6" height="5.6"/>
		<rect x="37.9" y="99.2" fill="#4D3605" width="5.6" height="5.6"/>
		<rect x="43.5" y="99.2" fill="#4D3605" width="5.6" height="5.6"/>
		<rect x="71.4" y="99.2" fill="#4D3605" width="5.6" height="5.6"/>
		<rect x="76.9" y="99.2" fill="#4D3605" width="5.6" height="5.6"/>
		<rect x="82.5" y="99.2" fill="#4D3605" width="5.6" height="5.6"/>
		<rect x="88.1" y="99.2" fill="#4D3605" width="5.6" height="5.6"/>
		<rect x="32.3" y="93.6" fill="#4D3605" width="5.6" height="5.6"/>
		<rect x="37.9" y="93.6" fill="#4D3605" width="5.6" height="5.6"/>
		<rect x="43.5" y="93.6" fill="#4D3605" width="5.6" height="5.6"/>
		<rect x="71.4" y="93.6" fill="#4D3605" width="5.6" height="5.6"/>
		<rect x="76.9" y="93.6" fill="#4D3605" width="5.6" height="5.6"/>
		<rect x="82.5" y="93.6" fill="#4D3605" width="5.6" height="5.6"/>
		<rect x="37.9" y="88" fill="#BE1E2D" width="5.6" height="5.6"/>
		<rect x="43.5" y="88" fill="#BE1E2D" width="5.6" height="5.6"/>
		<rect x="49.1" y="88" fill="#BE1E2D" width="5.6" height="5.6"/>
		<rect x="65.8" y="88" fill="#BE1E2D" width="5.6" height="5.6"/>
		<rect x="71.4" y="88" fill="#BE1E2D" width="5.6" height="5.6"/>
		<rect x="76.9" y="88" fill="#BE1E2D" width="5.6" height="5.6"/>
		<rect x="26.7" y="82.5" fill="#FCBA63" width="5.6" height="5.6"/>
		<rect x="32.3" y="82.5" fill="#FCBA63" width="5.6" height="5.6"/>
		<rect x="37.9" y="82.5" fill="#BE1E2D" width="5.6" height="5.6"/>
		<rect x="43.5" y="82.5" fill="#BE1E2D" width="5.6" height="5.6"/>
		<rect x="49.1" y="82.5" fill="#BE1E2D" width="5.6" height="5.6"/>
		<rect x="54.6" y="82.5" fill="#BE1E2D" width="5.6" height="5.6"/>
		<rect x="60.2" y="82.5" fill="#BE1E2D" width="5.6" height="5.6"/>
		<rect x="65.8" y="82.5" fill="#BE1E2D" width="5.6" height="5.6"/>
		<rect x="71.4" y="82.5" fill="#BE1E2D" width="5.6" height="5.6"/>
		<rect x="76.9" y="82.5" fill="#BE1E2D" width="5.6" height="5.6"/>
		<rect x="82.5" y="82.5" fill="#FCBA63" width="5.6" height="5.6"/>
		<rect x="88.1" y="82.5" fill="#FCBA63" width="5.6" height="5.6"/>
		<rect x="93.7" y="82.5" fill="#FCBA63" width="5.6" height="5.6"/>
		<rect x="26.7" y="76.9" fill="#FCBA63" width="5.6" height="5.6"/>
		<rect x="32.3" y="76.9" fill="#FCBA63" width="5.6" height="5.6"/>
		<rect x="37.9" y="76.9" fill="#FCBA63" width="5.6" height="5.6"/>
		<rect x="43.5" y="76.9" fill="#BE1E2D" width="5.6" height="5.6"/>
		<rect x="49.1" y="76.9" fill="#BE1E2D" width="5.6" height="5.6"/>
		<rect x="54.6" y="76.9" fill="#BE1E2D" width="5.6" height="5.6"/>
		<rect x="60.2" y="76.9" fill="#BE1E2D" width="5.6" height="5.6"/>
		<rect x="65.8" y="76.9" fill="#BE1E2D" width="5.6" height="5.6"/>
		<rect x="71.4" y="76.9" fill="#BE1E2D" width="5.6" height="5.6"/>
		<rect x="76.9" y="76.9" fill="#FCBA63" width="5.6" height="5.6"/>
		<rect x="82.5" y="76.9" fill="#FCBA63" width="5.6" height="5.6"/>
		<rect x="88.1" y="76.9" fill="#FCBA63" width="5.6" height="5.6"/>
		<rect x="93.7" y="76.9" fill="#FCBA63" width="5.6" height="5.6"/>
		<rect x="26.7" y="71.3" fill="#FCBA63" width="5.6" height="5.6"/>
		<rect x="32.3" y="71.3" fill="#FCBA63" width="5.6" height="5.6"/>
		<rect x="37.9" y="71.3" fill="#4D3605" width="5.6" height="5.6"/>
		<rect x="43.5" y="71.3" fill="#BE1E2D" width="5.6" height="5.6"/>
		<rect x="49.1" y="71.3" fill="#FCBA63" width="5.6" height="5.6"/>
		<rect x="54.6" y="71.3" fill="#BE1E2D" width="5.6" height="5.6"/>
		<rect x="60.2" y="71.3" fill="#BE1E2D" width="5.6" height="5.6"/>
		<rect x="65.8" y="71.3" fill="#FCBA63" width="5.6" height="5.6"/>
		<rect x="71.4" y="71.3" fill="#BE1E2D" width="5.6" height="5.6"/>
		<rect x="76.9" y="71.3" fill="#4D3605" width="5.6" height="5.6"/>
		<rect x="82.5" y="71.3" fill="#FCBA63" width="5.6" height="5.6"/>
		<rect x="88.1" y="71.3" fill="#FCBA63" width="5.6" height="5.6"/>
		<rect x="93.7" y="71.3" fill="#FCBA63" width="5.6" height="5.6"/>
		<rect x="26.7" y="65.7" fill="#4D3605" width="5.6" height="5.6"/>
		<rect x="32.3" y="65.7" fill="#4D3605" width="5.6" height="5.6"/>
		<rect x="37.9" y="65.7" fill="#4D3605" width="5.6" height="5.6"/>
		<rect x="43.5" y="65.7" fill="#4D3605" width="5.6" height="5.6"/>
		<rect x="49.1" y="65.7" fill="#BE1E2D" width="5.6" height="5.6"/>
		<rect x="54.6" y="65.7" fill="#BE1E2D" width="5.6" height="5.6"/>
		<rect x="60.2" y="65.7" fill="#BE1E2D" width="5.6" height="5.6"/>
		<rect x="65.8" y="65.7" fill="#BE1E2D" width="5.6" height="5.6"/>
		<rect x="71.4" y="65.7" fill="#4D3605" width="5.6" height="5.6"/>
		<rect x="76.9" y="65.7" fill="#4D3605" width="5.6" height="5.6"/>
		<rect x="82.5" y="65.7" fill="#4D3605" width="5.6" height="5.6"/>
		<rect x="88.1" y="65.7" fill="#4D3605" width="5.6" height="5.6"/>
		<rect x="93.7" y="65.7" fill="#4D3605" width="5.6" height="5.6"/>
		<rect x="26.7" y="60.2" fill="#4D3605" width="5.6" height="5.6"/>
		<rect x="32.3" y="60.2" fill="#4D3605" width="5.6" height="5.6"/>
		<rect x="37.9" y="60.2" fill="#4D3605" width="5.6" height="5.6"/>
		<rect x="43.5" y="60.2" fill="#4D3605" width="5.6" height="5.6"/>
		<rect x="49.1" y="60.2" fill="#BE1E2D" width="5.6" height="5.6"/>
		<rect x="54.6" y="60.2" fill="#4D3605" width="5.6" height="5.6"/>
		<rect x="60.2" y="60.2" fill="#4D3605" width="5.6" height="5.6"/>
		<rect x="65.8" y="60.2" fill="#BE1E2D" width="5.6" height="5.6"/>
		<rect x="71.4" y="60.2" fill="#4D3605" width="5.6" height="5.6"/>
		<rect x="76.9" y="60.2" fill="#4D3605" width="5.6" height="5.6"/>
		<rect x="82.5" y="60.2" fill="#4D3605" width="5.6" height="5.6"/>
		<rect x="88.1" y="60.2" fill="#4D3605" width="5.6" height="5.6"/>
		<rect x="32.3" y="54.6" fill="#4D3605" width="5.6" height="5.6"/>
		<rect x="37.9" y="54.6" fill="#4D3605" width="5.6" height="5.6"/>
		<rect x="43.5" y="54.6" fill="#4D3605" width="5.6" height="5.6"/>
		<rect x="49.1" y="54.6" fill="#BE1E2D" width="5.6" height="5.6"/>
		<rect x="54.6" y="54.6" fill="#4D3605" width="5.6" height="5.6"/>
		<rect x="60.2" y="54.6" fill="#4D3605" width="5.6" height="5.6"/>
		<rect x="65.8" y="54.6" fill="#4D3605" width="5.6" height="5.6"/>
		<rect x="43.5" y="49" fill="#FCBA63" width="5.6" height="5.6"/>
		<rect x="49.1" y="49" fill="#FCBA63" width="5.6" height="5.6"/>
		<rect x="54.6" y="49" fill="#FCBA63" width="5.6" height="5.6"/>
		<rect x="60.2" y="49" fill="#FCBA63" width="5.6" height="5.6"/>
		<rect x="65.8" y="49" fill="#FCBA63" width="5.6" height="5.6"/>
		<rect x="71.4" y="49" fill="#FCBA63" width="5.6" height="5.6"/>
		<rect x="76.9" y="49" fill="#FCBA63" width="5.6" height="5.6"/>
		<rect x="32.3" y="43.5" fill="#4D3605" width="5.6" height="5.6"/>
		<rect x="37.9" y="43.5" fill="#4D3605" width="5.6" height="5.6"/>
		<rect x="43.5" y="43.5" fill="#FCBA63" width="5.6" height="5.6"/>
		<rect x="49.1" y="43.5" fill="#FCBA63" width="5.6" height="5.6"/>
		<rect x="54.6" y="43.5" fill="#FCBA63" width="5.6" height="5.6"/>
		<rect x="60.2" y="43.5" fill="#FCBA63" width="5.6" height="5.6"/>
		<rect x="65.8" y="43.5" fill="#4D3605" width="5.6" height="5.6"/>
		<rect x="71.4" y="43.5" fill="#4D3605" width="5.6" height="5.6"/>
		<rect x="76.9" y="43.5" fill="#4D3605" width="5.6" height="5.6"/>
		<rect x="82.5" y="43.5" fill="#4D3605" width="5.6" height="5.6"/>
		<rect x="32.3" y="37.9" fill="#4D3605" width="5.6" height="5.6"/>
		<rect x="37.9" y="37.9" fill="#FCBA63" width="5.6" height="5.6"/>
		<rect x="43.5" y="37.9" fill="#4D3605" width="5.6" height="5.6"/>
		<rect x="49.1" y="37.9" fill="#4D3605" width="5.6" height="5.6"/>
		<rect x="54.6" y="37.9" fill="#FCBA63" width="5.6" height="5.6"/>
		<rect x="60.2" y="37.9" fill="#FCBA63" width="5.6" height="5.6"/>
		<rect x="65.8" y="37.9" fill="#FCBA63" width="5.6" height="5.6"/>
		<rect x="71.4" y="37.9" fill="#4D3605" width="5.6" height="5.6"/>
		<rect x="76.9" y="37.9" fill="#FCBA63" width="5.6" height="5.6"/>
		<rect x="82.5" y="37.9" fill="#FCBA63" width="5.6" height="5.6"/>
		<rect x="88.1" y="37.9" fill="#FCBA63" width="5.6" height="5.6"/>
		<rect x="32.3" y="32.3" fill="#4D3605" width="5.6" height="5.6"/>
		<rect x="37.9" y="32.3" fill="#FCBA63" width="5.6" height="5.6"/>
		<rect x="43.5" y="32.3" fill="#4D3605" width="5.6" height="5.6"/>
		<rect x="49.1" y="32.3" fill="#FCBA63" width="5.6" height="5.6"/>
		<rect x="54.6" y="32.3" fill="#FCBA63" width="5.6" height="5.6"/>
		<rect x="60.2" y="32.3" fill="#FCBA63" width="5.6" height="5.6"/>
		<rect x="65.8" y="32.3" fill="#4D3605" width="5.6" height="5.6"/>
		<rect x="71.4" y="32.3" fill="#FCBA63" width="5.6" height="5.6"/>
		<rect x="76.9" y="32.3" fill="#FCBA63" width="5.6" height="5.6"/>
		<rect x="82.5" y="32.3" fill="#FCBA63" width="5.6" height="5.6"/>
		<rect x="37.9" y="26.7" fill="#4D3605" width="5.6" height="5.6"/>
		<rect x="43.5" y="26.7" fill="#4D3605" width="5.6" height="5.6"/>
		<rect x="49.1" y="26.7" fill="#4D3605" width="5.6" height="5.6"/>
		<rect x="54.6" y="26.7" fill="#FCBA63" width="5.6" height="5.6"/>
		<rect x="60.2" y="26.7" fill="#FCBA63" width="5.6" height="5.6"/>
		<rect x="65.8" y="26.7" fill="#4D3605" width="5.6" height="5.6"/>
		<rect x="71.4" y="26.7" fill="#FCBA63" width="5.6" height="5.6"/>
		<rect x="37.9" y="21.2" fill="#BE1E2D" width="5.6" height="5.6"/>
		<rect x="43.5" y="21.2" fill="#BE1E2D" width="5.6" height="5.6"/>
		<rect x="49.1" y="21.2" fill="#BE1E2D" width="5.6" height="5.6"/>
		<rect x="54.6" y="21.2" fill="#BE1E2D" width="5.6" height="5.6"/>
		<rect x="60.2" y="21.2" fill="#BE1E2D" width="5.6" height="5.6"/>
		<rect x="65.8" y="21.2" fill="#BE1E2D" width="5.6" height="5.6"/>
		<rect x="71.4" y="21.2" fill="#BE1E2D" width="5.6" height="5.6"/>
		<rect x="76.9" y="21.2" fill="#BE1E2D" width="5.6" height="5.6"/>
		<rect x="82.5" y="21.2" fill="#BE1E2D" width="5.6" height="5.6"/>
		<rect x="43.5" y="15.6" fill="#BE1E2D" width="5.6" height="5.6"/>
		<rect x="49.1" y="15.6" fill="#BE1E2D" width="5.6" height="5.6"/>
		<rect x="54.6" y="15.6" fill="#BE1E2D" width="5.6" height="5.6"/>
		<rect x="60.2" y="15.6" fill="#BE1E2D" width="5.6" height="5.6"/>
		<rect x="65.8" y="15.6" fill="#BE1E2D" width="5.6" height="5.6"/>
	</g>
</g>
</svg>
