<?xml version="1.0" encoding="utf-8"?>
<!-- Generator: Adobe Illustrator 18.1.1, SVG Export Plug-In . SVG Version: 6.00 Build 0)  -->
<svg version="1.1" id="Layer_1" xmlns="http://www.w3.org/2000/svg" xmlns:xlink="http://www.w3.org/1999/xlink" x="0px" y="0px"
	 viewBox="0 0 50 50" enable-background="new 0 0 50 50" xml:space="preserve">
<g>
	<rect x="38.4" y="16.2" fill="#74B64A" width="1.5" height="1.5"/>
	<g>
		<rect x="10" y="46.1" fill="#BE1E2D" width="1.5" height="1.5"/>
		<rect x="11.5" y="46.1" fill="#BE1E2D" width="1.5" height="1.5"/>
		<rect x="13" y="46.1" fill="#74B64A" width="1.5" height="1.5"/>
		<rect x="14.5" y="46.1" fill="#74B64A" width="1.5" height="1.5"/>
		<rect x="20.5" y="46.1" fill="#BE1E2D" width="1.5" height="1.5"/>
		<rect x="22" y="46.1" fill="#BE1E2D" width="1.5" height="1.5"/>
		<rect x="23.5" y="46.1" fill="#74B64A" width="1.5" height="1.5"/>
		<rect x="25" y="46.1" fill="#BE1E2D" width="1.5" height="1.5"/>
		<rect x="26.5" y="46.1" fill="#BE1E2D" width="1.5" height="1.5"/>
		<rect x="28" y="46.1" fill="#BE1E2D" width="1.5" height="1.5"/>
		<rect x="10" y="44.6" fill="#BE1E2D" width="1.5" height="1.5"/>
		<rect x="11.5" y="44.6" fill="#BE1E2D" width="1.5" height="1.5"/>
		<rect x="13" y="44.6" fill="#BE1E2D" width="1.5" height="1.5"/>
		<rect x="14.5" y="44.6" fill="#BE1E2D" width="1.5" height="1.5"/>
		<rect x="20.5" y="44.6" fill="#BE1E2D" width="1.5" height="1.5"/>
		<rect x="22" y="44.6" fill="#BE1E2D" width="1.5" height="1.5"/>
		<rect x="23.5" y="44.6" fill="#BE1E2D" width="1.5" height="1.5"/>
		<rect x="25" y="44.6" fill="#74B64A" width="1.5" height="1.5"/>
		<rect x="10" y="43.1" fill="#BE1E2D" width="1.5" height="1.5"/>
		<rect x="11.5" y="43.1" fill="#BE1E2D" width="1.5" height="1.5"/>
		<rect x="13" y="43.1" fill="#FFBC00" width="1.5" height="1.5"/>
		<rect x="20.5" y="43.1" fill="#BE1E2D" width="1.5" height="1.5"/>
		<rect x="22" y="43.1" fill="#FFBC00" width="1.5" height="1.5"/>
		<rect x="23.5" y="43.1" fill="#BE1E2D" width="1.5" height="1.5"/>
		<rect x="25" y="43.1" fill="#BE1E2D" width="1.5" height="1.5"/>
		<rect x="11.5" y="41.6" fill="#BE1E2D" width="1.5" height="1.5"/>
		<rect x="13" y="41.6" fill="#FFBC00" width="1.5" height="1.5"/>
		<rect x="14.5" y="41.6" fill="#FFBC00" width="1.5" height="1.5"/>
		<rect x="16" y="41.6" fill="#FFBC00" width="1.5" height="1.5"/>
		<rect x="17.5" y="41.6" fill="#FFBC00" width="1.5" height="1.5"/>
		<rect x="22" y="41.6" fill="#FFBC00" width="1.5" height="1.5"/>
		<rect x="23.5" y="41.6" fill="#FFBC00" width="1.5" height="1.5"/>
		<rect x="25" y="41.6" fill="#BE1E2D" width="1.5" height="1.5"/>
		<rect x="14.5" y="40.1" fill="#FFBC00" width="1.5" height="1.5"/>
		<rect x="16" y="40.1" fill="#FFBC00" width="1.5" height="1.5"/>
		<rect x="17.5" y="40.1" fill="#FFBC00" width="1.5" height="1.5"/>
		<rect x="19" y="40.1" fill="#FFBC00" width="1.5" height="1.5"/>
		<rect x="20.5" y="40.1" fill="#BE1E2D" width="1.5" height="1.5"/>
		<rect x="22" y="40.1" fill="#FFBC00" width="1.5" height="1.5"/>
		<rect x="23.5" y="40.1" fill="#FFBC00" width="1.5" height="1.5"/>
		<rect x="25" y="40.1" fill="#FFBC00" width="1.5" height="1.5"/>
		<rect x="16" y="38.6" fill="#FFBC00" width="1.5" height="1.5"/>
		<rect x="17.5" y="38.6" fill="#FFBC00" width="1.5" height="1.5"/>
		<rect x="19" y="38.6" fill="#BE1E2D" width="1.5" height="1.5"/>
		<rect x="20.5" y="38.6" fill="#BE1E2D" width="1.5" height="1.5"/>
		<rect x="22" y="38.6" fill="#BE1E2D" width="1.5" height="1.5"/>
		<rect x="23.5" y="38.6" fill="#FFBC00" width="1.5" height="1.5"/>
		<rect x="25" y="38.6" fill="#FFBC00" width="1.5" height="1.5"/>
		<rect x="17.5" y="37.1" fill="#FFBC00" width="1.5" height="1.5"/>
		<rect x="19" y="37.1" fill="#FFBC00" width="1.5" height="1.5"/>
		<rect x="20.5" y="37.1" fill="#BE1E2D" width="1.5" height="1.5"/>
		<rect x="22" y="37.1" fill="#BE1E2D" width="1.5" height="1.5"/>
		<rect x="23.5" y="37.1" fill="#FFBC00" width="1.5" height="1.5"/>
		<rect x="25" y="37.1" fill="#FFBC00" width="1.5" height="1.5"/>
		<rect x="26.5" y="37.1" fill="#FFBC00" width="1.5" height="1.5"/>
		<rect x="17.5" y="35.7" fill="#FFBC00" width="1.5" height="1.5"/>
		<rect x="19" y="35.7" fill="#FFBC00" width="1.5" height="1.5"/>
		<rect x="20.5" y="35.7" fill="#FFBC00" width="1.5" height="1.5"/>
		<rect x="22" y="35.7" fill="#FFBC00" width="1.5" height="1.5"/>
		<rect x="23.5" y="35.7" fill="#FFBC00" width="1.5" height="1.5"/>
		<rect x="25" y="35.7" fill="#FFBC00" width="1.5" height="1.5"/>
		<rect x="26.5" y="35.7" fill="#BE1E2D" width="1.5" height="1.5"/>
		<rect x="17.5" y="34.2" fill="#FFBC00" width="1.5" height="1.5"/>
		<rect x="19" y="34.2" fill="#FFBC00" width="1.5" height="1.5"/>
		<rect x="20.5" y="34.2" fill="#FFBC00" width="1.5" height="1.5"/>
		<rect x="22" y="34.2" fill="#FFBC00" width="1.5" height="1.5"/>
		<rect x="23.5" y="34.2" fill="#FFBC00" width="1.5" height="1.5"/>
		<rect x="25" y="34.2" fill="#BE1E2D" width="1.5" height="1.5"/>
		<rect x="26.5" y="34.2" fill="#BE1E2D" width="1.5" height="1.5"/>
		<rect x="17.5" y="32.7" fill="#FFBC00" width="1.5" height="1.5"/>
		<rect x="19" y="32.7" fill="#FFBC00" width="1.5" height="1.5"/>
		<rect x="20.5" y="32.7" fill="#FFBC00" width="1.5" height="1.5"/>
		<rect x="22" y="32.7" fill="#FFBC00" width="1.5" height="1.5"/>
		<rect x="23.5" y="32.7" fill="#FFBC00" width="1.5" height="1.5"/>
		<rect x="25" y="32.7" fill="#FFBC00" width="1.5" height="1.5"/>
		<rect x="26.5" y="32.7" fill="#FFBC00" width="1.5" height="1.5"/>
		<rect x="17.5" y="31.2" fill="#FFBC00" width="1.5" height="1.5"/>
		<rect x="19" y="31.2" fill="#FFBC00" width="1.5" height="1.5"/>
		<rect x="20.5" y="31.2" fill="#FFBC00" width="1.5" height="1.5"/>
		<rect x="22" y="31.2" fill="#FFBC00" width="1.5" height="1.5"/>
		<rect x="23.5" y="31.2" fill="#FFBC00" width="1.5" height="1.5"/>
		<rect x="25" y="31.2" fill="#FFBC00" width="1.5" height="1.5"/>
		<rect x="26.5" y="31.2" fill="#FFBC00" width="1.5" height="1.5"/>
		<rect x="16" y="29.7" fill="#FFBC00" width="1.5" height="1.5"/>
		<rect x="17.5" y="29.7" fill="#FFBC00" width="1.5" height="1.5"/>
		<rect x="19" y="29.7" fill="#FFBC00" width="1.5" height="1.5"/>
		<rect x="20.5" y="29.7" fill="#FFBC00" width="1.5" height="1.5"/>
		<rect x="22" y="29.7" fill="#FFBC00" width="1.5" height="1.5"/>
		<rect x="23.5" y="29.7" fill="#FFBC00" width="1.5" height="1.5"/>
		<rect x="25" y="29.7" fill="#FFBC00" width="1.5" height="1.5"/>
		<rect x="16" y="28.2" fill="#FFBC00" width="1.5" height="1.5"/>
		<rect x="17.5" y="28.2" fill="#FFBC00" width="1.5" height="1.5"/>
		<rect x="19" y="28.2" fill="#FFBC00" width="1.5" height="1.5"/>
		<rect x="20.5" y="28.2" fill="#FFBC00" width="1.5" height="1.5"/>
		<rect x="22" y="28.2" fill="#FFBC00" width="1.5" height="1.5"/>
		<rect x="23.5" y="28.2" fill="#FFBC00" width="1.5" height="1.5"/>
		<rect x="16" y="26.7" fill="#FFBC00" width="1.5" height="1.5"/>
		<rect x="17.5" y="26.7" fill="#FFBC00" width="1.5" height="1.5"/>
		<rect x="19" y="26.7" fill="#FFBC00" width="1.5" height="1.5"/>
		<rect x="20.5" y="26.7" fill="#FFBC00" width="1.5" height="1.5"/>
		<rect x="22" y="26.7" fill="#FFBC00" width="1.5" height="1.5"/>
		<rect x="17.5" y="25.2" fill="#FFBC00" width="1.5" height="1.5"/>
		<rect x="19" y="25.2" fill="#FFBC00" width="1.5" height="1.5"/>
		<rect x="20.5" y="25.2" fill="#FFBC00" width="1.5" height="1.5"/>
		<rect x="22" y="25.2" fill="#FFBC00" width="1.5" height="1.5"/>
		<rect x="26.5" y="25.2" fill="#BE1E2D" width="1.5" height="1.5"/>
		<rect x="28" y="25.2" fill="#BE1E2D" width="1.5" height="1.5"/>
		<rect x="30.9" y="25.2" fill="#BE1E2D" width="1.5" height="1.5"/>
		<rect x="17.5" y="23.7" fill="#FFBC00" width="1.5" height="1.5"/>
		<rect x="19" y="23.7" fill="#FFBC00" width="1.5" height="1.5"/>
		<rect x="20.5" y="23.7" fill="#FFBC00" width="1.5" height="1.5"/>
		<rect x="22" y="23.7" fill="#74B64A" width="1.5" height="1.5"/>
		<rect x="23.5" y="23.7" fill="#74B64A" width="1.5" height="1.5"/>
		<rect x="25" y="23.7" fill="#FFBC00" width="1.5" height="1.5"/>
		<rect x="26.5" y="23.7" fill="#FFBC00" width="1.5" height="1.5"/>
		<rect x="28" y="23.7" fill="#BE1E2D" width="1.5" height="1.5"/>
		<rect x="29.4" y="23.7" fill="#BE1E2D" width="1.5" height="1.5"/>
		<rect x="30.9" y="23.7" fill="#BE1E2D" width="1.5" height="1.5"/>
		<rect x="16" y="22.2" fill="#FFBC00" width="1.5" height="1.5"/>
		<rect x="17.5" y="22.2" fill="#FFBC00" width="1.5" height="1.5"/>
		<rect x="19" y="22.2" fill="#FFBC00" width="1.5" height="1.5"/>
		<rect x="20.5" y="22.2" fill="#FFBC00" width="1.5" height="1.5"/>
		<rect x="22" y="22.2" fill="#BE1E2D" width="1.5" height="1.5"/>
		<rect x="23.5" y="22.2" fill="#BE1E2D" width="1.5" height="1.5"/>
		<rect x="25" y="22.2" fill="#FFBC00" width="1.5" height="1.5"/>
		<rect x="26.5" y="22.2" fill="#BE1E2D" width="1.5" height="1.5"/>
		<rect x="28" y="22.2" fill="#BE1E2D" width="1.5" height="1.5"/>
		<rect x="29.4" y="22.2" fill="#BE1E2D" width="1.5" height="1.5"/>
		<rect x="16" y="20.7" fill="#FFBC00" width="1.5" height="1.5"/>
		<rect x="17.5" y="20.7" fill="#FFBC00" width="1.5" height="1.5"/>
		<rect x="19" y="20.7" fill="#FFBC00" width="1.5" height="1.5"/>
		<rect x="20.5" y="20.7" fill="#74B64A" width="1.5" height="1.5"/>
		<rect x="22" y="20.7" fill="#BE1E2D" width="1.5" height="1.5"/>
		<rect x="23.5" y="20.7" fill="#BE1E2D" width="1.5" height="1.5"/>
		<rect x="25" y="20.7" fill="#BE1E2D" width="1.5" height="1.5"/>
		<rect x="16" y="19.2" fill="#FFBC00" width="1.5" height="1.5"/>
		<rect x="17.5" y="19.2" fill="#FFBC00" width="1.5" height="1.5"/>
		<rect x="19" y="19.2" fill="#FFBC00" width="1.5" height="1.5"/>
		<rect x="20.5" y="19.2" fill="#74B64A" width="1.5" height="1.5"/>
		<rect x="22" y="19.2" fill="#BE1E2D" width="1.5" height="1.5"/>
		<rect x="23.5" y="19.2" fill="#FFBC00" width="1.5" height="1.5"/>
		<rect x="25" y="19.2" fill="#FFBC00" width="1.5" height="1.5"/>
		<rect x="26.5" y="19.2" fill="#BE1E2D" width="1.5" height="1.5"/>
		<rect x="28" y="19.2" fill="#BE1E2D" width="1.5" height="1.5"/>
		<rect x="29.4" y="19.2" fill="#74B64A" width="1.5" height="1.5"/>
		<rect x="30.9" y="19.2" fill="#74B64A" width="1.5" height="1.5"/>
		<rect x="32.4" y="19.2" fill="#74B64A" width="1.5" height="1.5"/>
		<rect x="33.9" y="19.2" fill="#74B64A" width="1.5" height="1.5"/>
		<rect x="35.4" y="19.2" fill="#FFBC00" width="1.5" height="1.5"/>
		<rect x="36.9" y="19.2" fill="#74B64A" width="1.5" height="1.5"/>
		<rect x="14.5" y="17.7" fill="#FFBC00" width="1.5" height="1.5"/>
		<rect x="16" y="17.7" fill="#FFBC00" width="1.5" height="1.5"/>
		<rect x="17.5" y="17.7" fill="#FFBC00" width="1.5" height="1.5"/>
		<rect x="19" y="17.7" width="1.5" height="1.5"/>
		<rect x="20.5" y="17.7" fill="#FFBC00" width="1.5" height="1.5"/>
		<rect x="22" y="17.7" fill="#FFBC00" width="1.5" height="1.5"/>
		<rect x="23.5" y="17.7" fill="#FFBC00" width="1.5" height="1.5"/>
		<rect x="25" y="17.7" fill="#BE1E2D" width="1.5" height="1.5"/>
		<rect x="26.5" y="17.7" fill="#BE1E2D" width="1.5" height="1.5"/>
		<rect x="28" y="17.7" fill="#FFBC00" width="1.5" height="1.5"/>
		<rect x="29.4" y="17.7" fill="#FFBC00" width="1.5" height="1.5"/>
		<rect x="30.9" y="17.7" fill="#74B64A" width="1.5" height="1.5"/>
		<rect x="32.4" y="17.7" fill="#74B64A" width="1.5" height="1.5"/>
		<rect x="33.9" y="17.7" fill="#74B64A" width="1.5" height="1.5"/>
		<rect x="35.4" y="17.7" fill="#74B64A" width="1.5" height="1.5"/>
		<rect x="36.9" y="17.7" fill="#74B64A" width="1.5" height="1.5"/>
		<rect x="14.5" y="16.2" fill="#FFBC00" width="1.5" height="1.5"/>
		<rect x="16" y="16.2" fill="#FFBC00" width="1.5" height="1.5"/>
		<rect x="17.5" y="16.2" fill="#FFBC00" width="1.5" height="1.5"/>
		<rect x="19" y="16.2" fill="#74B64A" width="1.5" height="1.5"/>
		<rect x="20.5" y="16.2" fill="#FFBC00" width="1.5" height="1.5"/>
		<rect x="22" y="16.2" fill="#FFBC00" width="1.5" height="1.5"/>
		<rect x="23.5" y="16.2" fill="#FFBC00" width="1.5" height="1.5"/>
		<rect x="25" y="16.2" fill="#FFBC00" width="1.5" height="1.5"/>
		<rect x="26.5" y="16.2" fill="#FFBC00" width="1.5" height="1.5"/>
		<rect x="28" y="16.2" fill="#FFBC00" width="1.5" height="1.5"/>
		<rect x="29.4" y="16.2" fill="#FFBC00" width="1.5" height="1.5"/>
		<rect x="30.9" y="16.2" fill="#FFBC00" width="1.5" height="1.5"/>
		<rect x="32.4" y="16.2" fill="#74B64A" width="1.5" height="1.5"/>
		<rect x="33.9" y="16.2" fill="#74B64A" width="1.5" height="1.5"/>
		<rect x="35.4" y="16.2" fill="#74B64A" width="1.5" height="1.5"/>
		<rect x="36.9" y="16.2" fill="#74B64A" width="1.5" height="1.5"/>
		<rect x="14.5" y="14.7" fill="#FFBC00" width="1.5" height="1.5"/>
		<rect x="16" y="14.7" fill="#FFBC00" width="1.5" height="1.5"/>
		<rect x="17.5" y="14.7" fill="#FFBC00" width="1.5" height="1.5"/>
		<rect x="19" y="14.7" fill="#FFBC00" width="1.5" height="1.5"/>
		<rect x="20.5" y="14.7" fill="#74B64A" width="1.5" height="1.5"/>
		<rect x="22" y="14.7" fill="#FFBC00" width="1.5" height="1.5"/>
		<rect x="23.5" y="14.7" fill="#74B64A" width="1.5" height="1.5"/>
		<rect x="25" y="14.7" fill="#FFBC00" width="1.5" height="1.5"/>
		<rect x="26.5" y="14.7" fill="#BE1E2D" width="1.5" height="1.5"/>
		<rect x="28" y="14.7" fill="#FFBC00" width="1.5" height="1.5"/>
		<rect x="29.4" y="14.7" fill="#FFBC00" width="1.5" height="1.5"/>
		<rect x="30.9" y="14.7" fill="#FFBC00" width="1.5" height="1.5"/>
		<rect x="32.4" y="14.7" fill="#74B64A" width="1.5" height="1.5"/>
		<rect x="33.9" y="14.7" fill="#74B64A" width="1.5" height="1.5"/>
		<rect x="35.4" y="14.7" fill="#FFBC00" width="1.5" height="1.5"/>
		<rect x="36.9" y="14.7" fill="#74B64A" width="1.5" height="1.5"/>
		<rect x="16" y="13.2" fill="#FFBC00" width="1.5" height="1.5"/>
		<rect x="17.5" y="13.2" fill="#FFBC00" width="1.5" height="1.5"/>
		<rect x="19" y="13.2" fill="#FFBC00" width="1.5" height="1.5"/>
		<rect x="20.5" y="13.2" fill="#FFBC00" width="1.5" height="1.5"/>
		<rect x="22" y="13.2" fill="#74B64A" width="1.5" height="1.5"/>
		<rect x="23.5" y="13.2" fill="#FFBC00" width="1.5" height="1.5"/>
		<rect x="25" y="13.2" width="1.5" height="1.5"/>
		<rect x="26.5" y="13.2" fill="#BE1E2D" width="1.5" height="1.5"/>
		<rect x="28" y="13.2" fill="#BE1E2D" width="1.5" height="1.5"/>
		<rect x="29.4" y="13.2" fill="#BE1E2D" width="1.5" height="1.5"/>
		<rect x="16" y="11.7" fill="#BE1E2D" width="1.5" height="1.5"/>
		<rect x="17.5" y="11.7" fill="#FFBC00" width="1.5" height="1.5"/>
		<rect x="19" y="11.7" fill="#FFBC00" width="1.5" height="1.5"/>
		<rect x="20.5" y="11.7" fill="#FFBC00" width="1.5" height="1.5"/>
		<rect x="22" y="11.7" fill="#FFBC00" width="1.5" height="1.5"/>
		<rect x="23.5" y="11.7" width="1.5" height="1.5"/>
		<rect x="25" y="11.7" fill="#BE1E2D" width="1.5" height="1.5"/>
		<rect x="26.5" y="11.7" fill="#BE1E2D" width="1.5" height="1.5"/>
		<rect x="28" y="11.7" width="1.5" height="1.5"/>
		<rect x="29.4" y="11.7" fill="#74B64A" width="1.5" height="1.5"/>
		<rect x="14.5" y="10.2" fill="#BE1E2D" width="1.5" height="1.5"/>
		<rect x="16" y="10.2" fill="#BE1E2D" width="1.5" height="1.5"/>
		<rect x="17.5" y="10.2" fill="#BE1E2D" width="1.5" height="1.5"/>
		<rect x="19" y="10.2" fill="#BE1E2D" width="1.5" height="1.5"/>
		<rect x="20.5" y="10.2" fill="#BE1E2D" width="1.5" height="1.5"/>
		<rect x="22" y="10.2" fill="#74B64A" width="1.5" height="1.5"/>
		<rect x="23.5" y="10.2" fill="#BE1E2D" width="1.5" height="1.5"/>
		<rect x="25" y="10.2" fill="#BE1E2D" width="1.5" height="1.5"/>
		<rect x="26.5" y="10.2" width="1.5" height="1.5"/>
		<rect x="28" y="10.2" fill="#74B64A" width="1.5" height="1.5"/>
		<rect x="29.4" y="10.2" fill="#74B64A" width="1.5" height="1.5"/>
		<rect x="14.5" y="8.8" fill="#BE1E2D" width="1.5" height="1.5"/>
		<rect x="16" y="8.8" fill="#BE1E2D" width="1.5" height="1.5"/>
		<rect x="17.5" y="8.8" fill="#BE1E2D" width="1.5" height="1.5"/>
		<rect x="19" y="8.8" fill="#BE1E2D" width="1.5" height="1.5"/>
		<rect x="20.5" y="8.8" fill="#BE1E2D" width="1.5" height="1.5"/>
		<rect x="22" y="8.8" fill="#BE1E2D" width="1.5" height="1.5"/>
		<rect x="23.5" y="8.8" fill="#74B64A" width="1.5" height="1.5"/>
		<rect x="25" y="8.8" fill="#BE1E2D" width="1.5" height="1.5"/>
		<rect x="26.5" y="8.8" width="1.5" height="1.5"/>
		<rect x="28" y="8.8" fill="#74B64A" width="1.5" height="1.5"/>
		<rect x="29.4" y="8.8" fill="#FFBC00" width="1.5" height="1.5"/>
		<rect x="14.5" y="7.3" fill="#BE1E2D" width="1.5" height="1.5"/>
		<rect x="16" y="7.3" fill="#FFBC00" width="1.5" height="1.5"/>
		<rect x="17.5" y="7.3" fill="#BE1E2D" width="1.5" height="1.5"/>
		<rect x="19" y="7.3" fill="#BE1E2D" width="1.5" height="1.5"/>
		<rect x="20.5" y="7.3" fill="#BE1E2D" width="1.5" height="1.5"/>
		<rect x="22" y="7.3" fill="#74B64A" width="1.5" height="1.5"/>
		<rect x="23.5" y="7.3" fill="#BE1E2D" width="1.5" height="1.5"/>
		<rect x="25" y="7.3" fill="#BE1E2D" width="1.5" height="1.5"/>
		<rect x="26.5" y="7.3" fill="#74B64A" width="1.5" height="1.5"/>
		<rect x="28" y="7.3" fill="#FFBC00" width="1.5" height="1.5"/>
		<rect x="16" y="5.8" fill="#BE1E2D" width="1.5" height="1.5"/>
		<rect x="17.5" y="5.8" fill="#FFBC00" width="1.5" height="1.5"/>
		<rect x="19" y="5.8" fill="#BE1E2D" width="1.5" height="1.5"/>
		<rect x="20.5" y="5.8" fill="#BE1E2D" width="1.5" height="1.5"/>
		<rect x="22" y="5.8" fill="#BE1E2D" width="1.5" height="1.5"/>
		<rect x="23.5" y="5.8" fill="#BE1E2D" width="1.5" height="1.5"/>
		<rect x="25" y="5.8" fill="#BE1E2D" width="1.5" height="1.5"/>
		<rect x="26.5" y="5.8" fill="#BE1E2D" width="1.5" height="1.5"/>
		<rect x="28" y="5.8" fill="#BE1E2D" width="1.5" height="1.5"/>
		<rect x="17.5" y="4.3" fill="#BE1E2D" width="1.5" height="1.5"/>
		<rect x="19" y="4.3" fill="#BE1E2D" width="1.5" height="1.5"/>
		<rect x="20.5" y="4.3" fill="#BE1E2D" width="1.5" height="1.5"/>
		<rect x="22" y="4.3" fill="#BE1E2D" width="1.5" height="1.5"/>
		<rect x="23.5" y="4.3" fill="#BE1E2D" width="1.5" height="1.5"/>
		<rect x="25" y="4.3" fill="#BE1E2D" width="1.5" height="1.5"/>
		<rect x="26.5" y="4.3" fill="#BE1E2D" width="1.5" height="1.5"/>
		<rect x="20.5" y="2.8" fill="#BE1E2D" width="1.5" height="1.5"/>
		<rect x="22" y="2.8" fill="#BE1E2D" width="1.5" height="1.5"/>
		<rect x="23.5" y="2.8" fill="#BE1E2D" width="1.5" height="1.5"/>
	</g>
</g>
</svg>
